HIERARCHY
ROOT Hips
{
	OFFSET 0.000000 100.481300 0.000000
	CHANNELS 6 Xposition Yposition Zposition Xrotation Yrotation Zrotation
	JOINT Spine
	{
		OFFSET -0.279200 12.230698 -2.892100
		CHANNELS 3 Xrotation Yrotation Zrotation
		JOINT Spine1
		{
			OFFSET -0.325700 14.269203 -3.374200
			CHANNELS 3 Xrotation Yrotation Zrotation
			JOINT Spine2
			{
				OFFSET -0.372300 16.307602 -0.352600
				CHANNELS 3 Xrotation Yrotation Zrotation
				JOINT Neck
				{
					OFFSET -0.418800 17.814194 8.416900
					CHANNELS 3 Xrotation Yrotation Zrotation
					JOINT Head
					{
						OFFSET 0.000000 7.031097 3.806800
						CHANNELS 3 Xrotation Yrotation Zrotation
						JOINT HeadTop_End
						{
							OFFSET 0.000000 24.646606 12.978600
							CHANNELS 3 Xrotation Yrotation Zrotation
							End Site
							{
								OFFSET 0.000000 27.854965 0.000000
							}
						}
					}
				}
				JOINT LeftShoulder
				{
					OFFSET 16.952999 14.495407 -7.737500
					CHANNELS 3 Xrotation Yrotation Zrotation
					JOINT LeftArm
					{
						OFFSET 9.308998 -2.777710 0.208600
						CHANNELS 3 Xrotation Yrotation Zrotation
						JOINT LeftForeArm
						{
							OFFSET 29.972298 0.000000 0.000000
							CHANNELS 3 Xrotation Yrotation Zrotation
							JOINT LeftHand
							{
								OFFSET 26.026505 0.000000 0.000000
								CHANNELS 3 Xrotation Yrotation Zrotation
								JOINT LeftHandThumb1
								{
									OFFSET 12.240501 -7.147949 9.207150
									CHANNELS 3 Xrotation Yrotation Zrotation
									JOINT LeftHandThumb2
									{
										OFFSET 4.138618 -2.389435 2.389433
										CHANNELS 3 Xrotation Yrotation Zrotation
										JOINT LeftHandThumb3
										{
											OFFSET 2.726913 -1.574387 1.574386
											CHANNELS 3 Xrotation Yrotation Zrotation
											JOINT LeftHandThumb4
											{
												OFFSET 3.941010 -2.275345 2.275342
												CHANNELS 3 Xrotation Yrotation Zrotation
												End Site
												{
													OFFSET -0.005798 5.087799 0.009903
												}
											}
										}
									}
								}
								JOINT LeftHandIndex1
								{
									OFFSET 24.424698 -1.985611 5.953459
									CHANNELS 3 Xrotation Yrotation Zrotation
									JOINT LeftHandIndex2
									{
										OFFSET 6.426697 0.000000 0.000000
										CHANNELS 3 Xrotation Yrotation Zrotation
										JOINT LeftHandIndex3
										{
											OFFSET 5.337898 0.000000 0.000000
											CHANNELS 3 Xrotation Yrotation Zrotation
											JOINT LeftHandIndex4
											{
												OFFSET 4.409401 0.000000 0.000000
												CHANNELS 3 Xrotation Yrotation Zrotation
												End Site
												{
													OFFSET 0.000000 4.409363 0.014373
												}
											}
										}
									}
								}
								JOINT LeftHandMiddle1
								{
									OFFSET 23.810104 0.000000 0.000000
									CHANNELS 3 Xrotation Yrotation Zrotation
									JOINT LeftHandMiddle2
									{
										OFFSET 7.176498 0.000000 0.000000
										CHANNELS 3 Xrotation Yrotation Zrotation
										JOINT LeftHandMiddle3
										{
											OFFSET 6.774902 0.000000 0.000000
											CHANNELS 3 Xrotation Yrotation Zrotation
											JOINT LeftHandMiddle4
											{
												OFFSET 5.403328 0.000000 0.000000
												CHANNELS 3 Xrotation Yrotation Zrotation
												End Site
												{
													OFFSET -0.027702 5.403244 0.017414
												}
											}
										}
									}
								}
								JOINT LeftHandRing1
								{
									OFFSET 22.908401 -0.839279 -6.020567
									CHANNELS 3 Xrotation Yrotation Zrotation
									JOINT LeftHandRing2
									{
										OFFSET 6.337502 0.000000 0.000000
										CHANNELS 3 Xrotation Yrotation Zrotation
										JOINT LeftHandRing3
										{
											OFFSET 5.779297 0.000000 0.000000
											CHANNELS 3 Xrotation Yrotation Zrotation
											JOINT LeftHandRing4
											{
												OFFSET 4.965698 0.000000 0.000000
												CHANNELS 3 Xrotation Yrotation Zrotation
												End Site
												{
													OFFSET 0.000000 4.965668 0.016186
												}
											}
										}
									}
								}
								JOINT LeftHandPinky1
								{
									OFFSET 20.037003 -1.530319 -10.950146
									CHANNELS 3 Xrotation Yrotation Zrotation
									JOINT LeftHandPinky2
									{
										OFFSET 5.254700 0.000000 0.000000
										CHANNELS 3 Xrotation Yrotation Zrotation
										JOINT LeftHandPinky3
										{
											OFFSET 4.810204 0.000000 0.000000
											CHANNELS 3 Xrotation Yrotation Zrotation
											JOINT LeftHandPinky4
											{
												OFFSET 3.647202 0.000000 0.000000
												CHANNELS 3 Xrotation Yrotation Zrotation
												End Site
												{
													OFFSET 0.000000 3.647186 0.011889
												}
											}
										}
									}
								}
							}
						}
					}
				}
				JOINT RightShoulder
				{
					OFFSET -15.141001 14.495407 -7.737500
					CHANNELS 3 Xrotation Yrotation Zrotation
					JOINT RightArm
					{
						OFFSET -9.308998 -2.777710 0.208500
						CHANNELS 3 Xrotation Yrotation Zrotation
						JOINT RightForeArm
						{
							OFFSET -29.972300 0.000000 0.000000
							CHANNELS 3 Xrotation Yrotation Zrotation
							JOINT RightHand
							{
								OFFSET -26.026505 0.000000 0.000000
								CHANNELS 3 Xrotation Yrotation Zrotation
								JOINT RightHandThumb1
								{
									OFFSET -12.240601 -7.148026 9.207092
									CHANNELS 3 Xrotation Yrotation Zrotation
									JOINT RightHandThumb2
									{
										OFFSET -4.138618 -2.389435 2.389433
										CHANNELS 3 Xrotation Yrotation Zrotation
										JOINT RightHandThumb3
										{
											OFFSET -2.726974 -1.574417 1.574421
											CHANNELS 3 Xrotation Yrotation Zrotation
											JOINT RightHandThumb4
											{
												OFFSET -3.941010 -2.275345 2.275343
												CHANNELS 3 Xrotation Yrotation Zrotation
												End Site
												{
													OFFSET 0.005814 5.087799 0.009927
												}
											}
										}
									}
								}
								JOINT RightHandIndex1
								{
									OFFSET -24.424698 -1.985657 5.953444
									CHANNELS 3 Xrotation Yrotation Zrotation
									JOINT RightHandIndex2
									{
										OFFSET -6.426697 0.000000 0.000000
										CHANNELS 3 Xrotation Yrotation Zrotation
										JOINT RightHandIndex3
										{
											OFFSET -5.337898 0.000000 0.000000
											CHANNELS 3 Xrotation Yrotation Zrotation
											JOINT RightHandIndex4
											{
												OFFSET -4.409401 0.000000 0.000000
												CHANNELS 3 Xrotation Yrotation Zrotation
												End Site
												{
													OFFSET 0.000000 4.409363 0.014408
												}
											}
										}
									}
								}
								JOINT RightHandMiddle1
								{
									OFFSET -23.810097 0.000000 0.000000
									CHANNELS 3 Xrotation Yrotation Zrotation
									JOINT RightHandMiddle2
									{
										OFFSET -7.176498 0.000000 0.000000
										CHANNELS 3 Xrotation Yrotation Zrotation
										JOINT RightHandMiddle3
										{
											OFFSET -6.774902 0.000000 0.000000
											CHANNELS 3 Xrotation Yrotation Zrotation
											JOINT RightHandMiddle4
											{
												OFFSET -5.403328 0.000000 0.000000
												CHANNELS 3 Xrotation Yrotation Zrotation
												End Site
												{
													OFFSET 0.027702 5.403244 0.017457
												}
											}
										}
									}
								}
								JOINT RightHandRing1
								{
									OFFSET -22.908302 -0.839325 -6.020576
									CHANNELS 3 Xrotation Yrotation Zrotation
									JOINT RightHandRing2
									{
										OFFSET -6.337502 0.000000 0.000000
										CHANNELS 3 Xrotation Yrotation Zrotation
										JOINT RightHandRing3
										{
											OFFSET -5.779297 0.000000 0.000000
											CHANNELS 3 Xrotation Yrotation Zrotation
											JOINT RightHandRing4
											{
												OFFSET -4.965698 0.000000 0.000000
												CHANNELS 3 Xrotation Yrotation Zrotation
												End Site
												{
													OFFSET 0.000000 4.965668 0.016226
												}
											}
										}
									}
								}
								JOINT RightHandPinky1
								{
									OFFSET -20.037003 -1.530334 -10.950259
									CHANNELS 3 Xrotation Yrotation Zrotation
									JOINT RightHandPinky2
									{
										OFFSET -5.254700 0.000000 0.000000
										CHANNELS 3 Xrotation Yrotation Zrotation
										JOINT RightHandPinky3
										{
											OFFSET -4.810204 0.000000 0.000000
											CHANNELS 3 Xrotation Yrotation Zrotation
											JOINT RightHandPinky4
											{
												OFFSET -3.647202 0.000000 0.000000
												CHANNELS 3 Xrotation Yrotation Zrotation
												End Site
												{
													OFFSET 0.000000 3.647186 0.011917
												}
											}
										}
									}
								}
							}
						}
					}
				}
			}
		}
	}
	JOINT LeftUpLeg
	{
		OFFSET 15.427100 -6.655098 0.678600
		CHANNELS 3 Xrotation Yrotation Zrotation
		JOINT LeftLeg
		{
			OFFSET 4.081073 -39.591068 13.024000
			CHANNELS 3 Xrotation Yrotation Zrotation
			JOINT LeftFoot
			{
				OFFSET -4.081074 -37.707932 -15.979700
				CHANNELS 3 Xrotation Yrotation Zrotation
				JOINT LeftToeBase
				{
					OFFSET 5.346399 -15.068900 20.645000
					CHANNELS 3 Xrotation Yrotation Zrotation
					JOINT LeftToe_End
					{
						OFFSET 2.754700 0.931300 11.300900
						CHANNELS 3 Xrotation Yrotation Zrotation
						End Site
						{
							OFFSET 0.000000 11.669021 0.000000
						}
					}
				}
			}
		}
	}
	JOINT RightUpLeg
	{
		OFFSET -15.569500 -6.655098 0.678600
		CHANNELS 3 Xrotation Yrotation Zrotation
		JOINT RightLeg
		{
			OFFSET -4.081825 -39.591045 13.023800
			CHANNELS 3 Xrotation Yrotation Zrotation
			JOINT RightFoot
			{
				OFFSET 4.081824 -37.707954 -15.979600
				CHANNELS 3 Xrotation Yrotation Zrotation
				JOINT RightToeBase
				{
					OFFSET -5.346400 -15.068900 20.645000
					CHANNELS 3 Xrotation Yrotation Zrotation
					JOINT RightToe_End
					{
						OFFSET -2.754700 0.931300 11.300900
						CHANNELS 3 Xrotation Yrotation Zrotation
						End Site
						{
							OFFSET 0.000000 11.669021 0.000000
						}
					}
				}
			}
		}
	}
}
MOTION
Frames: 4
Frame Time: 0.033333
7.126397 91.514145 138.634735 11.527853 8.622042 -0.902482 7.298977 2.027907 3.627484 5.493878 1.398910 1.744686 5.487956 1.374889 1.570984 2.820295 -2.465193 -1.256265 6.492975 -13.930475 4.504672 -0.000003 0.000000 -0.000000 1.134447 -5.156670 6.265917 -1.625997 26.247292 -36.600942 0.000002 -59.830388 0.000008 12.167588 -6.874439 -13.167561 -4.608343 -7.624786 -4.922837 8.310002 30.313722 2.780895 -4.003642 35.146323 21.638063 -0.000001 0.000000 -0.000001 -3.293161 -6.994899 -28.325939 2.199735 4.575054 -51.339096 0.348963 1.993496 -19.856190 -0.000001 -0.000001 -0.000002 -0.693177 0.106327 -14.405147 2.489107 4.791516 -54.882271 0.138196 1.266264 -12.456470 -0.000002 -0.000001 0.000001 1.312254 5.970525 -38.060129 2.349589 4.690649 -53.194360 1.091220 3.406670 -35.513425 0.000003 -0.000001 0.000001 3.348480 22.351476 -54.709785 1.812686 4.237471 -46.304462 3.105116 5.168658 -61.969248 -0.000005 0.000001 0.000001 2.398780 11.731071 -6.530251 0.749780 -9.040871 14.290982 -0.000000 58.732120 0.000008 17.798066 17.350079 5.128024 -2.131151 14.546049 4.249132 8.285400 -30.977230 -3.295427 -2.937303 -33.720781 -20.419076 -0.000004 0.000002 0.000003 8.294540 1.148718 -4.340247 2.818441 -4.279548 66.722390 0.012855 -0.346186 4.253674 -0.000000 0.000002 -0.000003 0.330462 -4.188036 10.896581 3.031534 -4.364815 69.549378 1.536610 -3.458779 47.897320 0.000000 -0.000000 -0.000000 3.008291 -8.526587 30.611538 3.010050 -4.356778 69.266902 1.959832 -3.797917 54.577388 -0.000001 0.000001 -0.000003 2.968406 -22.994590 42.148360 3.120227 -4.396807 70.710551 2.246400 -3.985809 58.797431 0.000002 0.000001 0.000002 -35.144001 14.483221 23.876197 27.527175 -0.630315 -2.875573 10.584772 12.435814 -14.831802 -7.379206 0.097353 -2.099225 0.000000 0.000002 -0.000000 -19.534264 -13.953405 -2.049732 37.834484 -3.521206 -5.123383 -12.864824 -1.382454 8.659802 -16.523761 0.272006 -2.291408 0.000000 -0.000000 0.000000 
7.319566 92.396301 143.088287 10.605584 9.040838 -0.870780 6.996453 0.869011 4.017964 5.307723 0.792841 1.754963 5.308646 0.767549 1.633250 3.212728 -2.179394 -0.879658 4.038279 -12.804343 2.550294 -0.000004 0.000000 -0.000000 1.203611 -5.025523 9.506040 -10.003056 29.849207 -35.533946 0.000001 -65.620844 0.000007 7.021748 -11.222253 0.185676 -4.359853 -7.810478 -5.212833 8.310003 30.313728 2.780899 -4.003641 35.146320 21.638060 0.000001 0.000001 0.000000 -3.317133 -6.767566 -28.381813 2.145633 4.531371 -50.657710 0.227525 1.618387 -16.004231 -0.000001 -0.000001 -0.000002 -0.619268 0.061454 -13.147429 2.205385 4.579558 -51.410175 0.086485 1.003987 -9.846578 0.000001 -0.000000 0.000000 1.256442 5.898492 -37.166857 1.837298 4.260794 -46.636743 0.533172 2.443785 -24.611574 0.000002 0.000002 -0.000000 3.235956 22.276020 -53.412335 1.451014 3.860555 -41.185942 2.174093 4.554481 -51.017015 -0.000001 -0.000003 0.000003 2.121202 10.364028 -8.470662 2.530177 -15.948174 16.585339 0.000023 62.310539 -0.000012 1.948537 15.674225 2.489163 -2.626107 15.675892 3.330326 8.285400 -30.977230 -3.295426 -2.943131 -33.589071 -20.392271 -0.000002 0.000003 -0.000002 8.023887 0.781777 -5.902699 2.729143 -4.240124 65.520482 0.011855 -0.332515 4.085230 -0.000000 -0.000000 0.000000 0.209284 -3.952025 6.502114 2.962058 -4.338352 68.633702 1.548017 -3.469018 48.085761 -0.000001 0.000001 0.000000 2.467133 -8.573732 24.424560 3.149422 -4.406855 71.090822 1.615249 -3.528121 49.187638 0.000000 0.000001 -0.000000 1.626673 -23.892502 38.690494 3.258307 -4.442554 72.502294 1.882488 -3.741825 53.401202 -0.000000 -0.000000 -0.000002 -31.111385 16.556153 24.419844 25.910381 -2.682460 -3.163160 9.433823 12.867480 -14.726807 -7.599284 0.048817 -2.499912 0.000000 0.000003 -0.000000 -23.084805 -12.796295 -4.431048 39.578610 0.135642 -3.945509 -9.943884 -1.220281 13.929040 -16.081269 0.501856 -4.349939 -0.000000 -0.000000 -0.000000 
7.721118 92.604370 147.272736 9.892660 8.215923 -1.114737 7.256045 -0.324960 4.490486 5.506909 0.111839 1.816929 5.508094 0.087327 1.743708 2.838544 -1.744338 -0.353116 1.523328 -11.041359 -0.252397 -0.000000 -0.000001 -0.000000 1.250523 -4.884122 12.914221 -23.050775 31.157660 -33.744556 0.000002 -67.125364 0.000003 4.007736 -16.266558 18.151248 -4.218989 -8.035588 -5.355023 8.310001 30.313725 2.780897 -4.003644 35.146320 21.638058 0.000000 -0.000000 0.000002 -3.376494 -6.181363 -28.522873 2.149094 4.534199 -50.701512 0.188104 1.474099 -14.543541 0.000000 0.000001 -0.000000 -0.704295 0.136692 -14.679574 2.101255 4.494734 -50.093717 0.057144 0.817185 -8.000786 -0.000001 0.000000 0.000000 1.235584 5.870953 -36.828073 1.506481 3.922882 -42.003143 0.203090 1.530663 -15.114964 -0.000002 0.000001 0.000000 3.157536 22.221230 -52.495161 1.164257 3.506605 -36.724694 1.377763 3.775372 -40.085868 0.000003 -0.000001 0.000001 1.716189 9.184278 -10.137075 3.147333 -21.439269 20.124112 -0.000019 65.082994 0.000019 -8.176438 16.484378 -4.310241 -2.976193 16.471266 2.680339 8.285400 -30.977223 -3.295428 -2.982187 -32.742923 -20.220679 0.000000 0.000001 -0.000000 7.896276 0.672846 -5.953498 2.590559 -4.174421 63.631654 0.005881 -0.234290 2.877026 -0.000001 -0.000000 0.000000 0.125928 -3.759856 3.267443 2.767538 -4.257344 66.038592 1.472148 -3.399522 46.819540 -0.000002 0.000001 0.000002 1.978286 -8.680978 18.733945 3.094120 -4.387594 70.369725 1.223742 -3.148446 42.472165 -0.000000 0.000001 -0.000000 0.402611 -24.537245 34.932862 3.192628 -4.421372 71.652134 1.448356 -3.377083 46.416893 0.000001 -0.000002 -0.000000 -28.090936 18.902081 25.854098 25.767541 -4.568109 -3.330096 7.613984 13.572560 -14.873239 -10.091212 0.012982 -1.283583 -0.000000 0.000000 -0.000000 -28.241702 -12.093410 -5.672595 40.032275 2.630060 -3.450528 -8.646671 -1.835098 13.843228 -9.090358 0.001371 -0.228475 0.000000 -0.000000 -0.000001 
8.262213 92.235115 151.310989 9.391042 6.764988 -1.481215 7.581811 -1.474151 4.966647 5.760902 -0.614767 1.991448 5.761089 -0.638042 1.921829 2.191515 -1.361183 0.446675 0.380710 -8.815945 -2.258967 0.000002 -0.000000 0.000000 1.200284 -4.749630 16.172892 -38.494185 32.263099 -31.495952 0.000007 -64.746580 0.000005 13.719766 -21.134437 34.304058 -3.902560 -8.261332 -5.724957 8.310001 30.313722 2.780899 -4.003645 35.146320 21.638061 0.000003 -0.000000 0.000001 -3.451977 -5.379891 -28.708689 2.158018 4.541480 -50.814459 0.169819 1.401747 -13.814775 -0.000001 0.000000 -0.000002 -0.926280 0.344658 -18.629493 2.220547 4.591583 -51.599654 0.047600 0.746098 -7.300710 -0.000002 0.000001 -0.000000 1.310021 5.967706 -38.024572 1.388360 3.787905 -40.246569 0.063031 0.857982 -8.403096 -0.000000 -0.000001 0.000002 3.128064 22.200155 -52.147371 0.978572 3.243326 -33.571281 0.815389 2.983265 -30.567494 -0.000000 -0.000001 -0.000000 1.267517 8.213898 -11.545870 3.336292 -27.146930 23.926564 0.000005 67.539533 -0.000011 -9.460603 19.782625 -11.948870 -3.140866 16.844117 2.374693 8.285402 -30.977230 -3.295430 -3.019603 -31.981172 -20.066973 -0.000000 0.000001 0.000000 7.780105 0.788107 -2.976746 2.535473 -4.146744 62.872417 0.001701 -0.126064 1.547773 -0.000000 0.000000 0.000000 0.104943 -3.705019 2.410954 2.576167 -4.167296 63.433770 1.367972 -3.298852 45.036454 -0.000002 -0.000001 -0.000001 1.623478 -8.779235 14.765025 2.954528 -4.335418 68.534303 0.877282 -2.722580 35.714765 0.000001 0.000000 -0.000000 -0.521002 -24.933005 31.786478 3.034471 -4.365902 69.587839 1.046005 -2.942809 39.127879 0.000001 0.000004 0.000003 -25.684552 21.283983 27.653290 26.644259 -5.910028 -3.313258 5.273671 14.149919 -15.240635 -12.839248 -0.000014 -0.000001 0.000000 0.000000 -0.000000 -33.968112 -11.787989 -5.997787 39.417121 3.544480 -3.554096 -8.422294 -1.734965 13.181295 -7.685285 0.000002 -0.000004 -0.000000 -0.000000 -0.000001 
